<?xml version="1.0" standalone="no"?><!DOCTYPE svg PUBLIC "-//W3C//DTD SVG 1.1//EN" "http://www.w3.org/Graphics/SVG/1.1/DTD/svg11.dtd"><svg t="1561092476927" class="icon" viewBox="0 0 1024 1024" version="1.1" xmlns="http://www.w3.org/2000/svg" p-id="3898" xmlns:xlink="http://www.w3.org/1999/xlink" width="200" height="200"><defs><style type="text/css"></style></defs><path d="M924.8 128H364.8c-35.2 0-64 32-64 67.2v464c0 35.2 28.8 67.2 67.2 67.2H672l99.2 73.6 54.4-73.6h99.2c35.2 0 67.2-28.8 67.2-67.2V195.2C992 160 963.2 128 924.8 128z m-249.6 502.4h-54.4V576h54.4v54.4z m86.4-240c-9.6 16-22.4 32-44.8 51.2-16 12.8-25.6 22.4-28.8 28.8-3.2 6.4-9.6 12.8-9.6 22.4-3.2 9.6-3.2 22.4-3.2 41.6h-44.8v-16c0-19.2 3.2-35.2 6.4-48 3.2-9.6 9.6-19.2 19.2-32 6.4-6.4 16-19.2 32-32 16-16 25.6-25.6 32-35.2 3.2-9.6 6.4-19.2 6.4-28.8 0-19.2-6.4-35.2-22.4-48-12.8-12.8-32-22.4-51.2-22.4-19.2 0-35.2 6.4-48 19.2-12.8 12.8-22.4 32-25.6 60.8l-48-6.4c3.2-35.2 16-64 38.4-83.2 22.4-19.2 48-28.8 83.2-28.8 38.4 0 67.2 9.6 89.6 32 22.4 19.2 32 44.8 32 76.8-3.2 16-6.4 32-12.8 48z" fill="#50B6FF" p-id="3899"></path><path d="M540.8 793.6c0 28.8-22.4 51.2-48 51.2h-224L195.2 896l-41.6-54.4H80c-25.6 0-48-22.4-48-51.2V451.2c0-28.8 22.4-51.2 48-51.2l176-3.2v291.2s-3.2 41.6 12.8 60.8c22.4 22.4 60.8 25.6 60.8 25.6h211.2v19.2z" fill="#95D3FF" p-id="3900"></path></svg>